<svg xmlns="http://www.w3.org/2000/svg" viewBox="0 0 32 32">
  <rect width="32" height="32" rx="6" fill="#E41E20"/>
  <path d="M16 4c-.5 0-1 .2-1.3.5L12 7.5l-1.5-1c-.4-.3-1-.3-1.4 0l-1.5 1c-.3.2-.6.6-.6 1v3.5l-1 1.5c-.3.4-.3 1 0 1.4l2 2.5v3.1l-1.5 2c-.3.4-.3 1 .1 1.4l3 2.5c.2.2.5.3.8.3h1.2l1.5 1.5c.4.4 1 .5 1.4.2l1-.5v1.1c0 .6.4 1 1 1s1-.4 1-1v-1.1l1 .5c.4.2 1 .1 1.4-.2l1.5-1.5h1.2c.3 0 .6-.1.8-.3l3-2.5c.4-.3.4-.9.1-1.4l-1.5-2V17l2-2.5c.3-.4.3-1 0-1.4l-1-1.5V8c0-.4-.2-.8-.6-1l-1.5-1c-.4-.3-1-.3-1.4 0L20 7.5l-2.7-3C17 4.2 16.5 4 16 4zm-2 10.5c.8 0 1.5.7 1.5 1.5s-.7 1.5-1.5 1.5-1.5-.7-1.5-1.5.7-1.5 1.5-1.5zm4 0c.8 0 1.5.7 1.5 1.5s-.7 1.5-1.5 1.5-1.5-.7-1.5-1.5.7-1.5 1.5-1.5z" fill="#1A1A1A"/>
</svg>
